<svg width="960" height="1200" viewBox="0 0 960 1200" fill="none" xmlns="http://www.w3.org/2000/svg">
  <rect width="960" height="1200" fill="#E7E0D5"/>
  <rect x="0" y="0" width="960" height="1200" fill="url(#room)"/>
  <rect x="64" y="298" width="508" height="450" fill="#231F1D"/>
  <rect x="86" y="320" width="464" height="406" fill="#F4F6F5"/>
  <rect x="108" y="342" width="420" height="362" fill="url(#view)"/>
  <path d="M108 522H528" stroke="#BFC7CD" stroke-width="8"/>
  <path d="M316 342V704" stroke="#BFC7CD" stroke-width="8"/>
  <rect x="0" y="970" width="960" height="230" fill="#D9D0C3"/>
  <rect x="320" y="710" width="360" height="144" rx="20" fill="#F4EFE8"/>
  <rect x="294" y="772" width="412" height="156" rx="18" fill="#E7E1D8"/>
  <rect x="236" y="892" width="528" height="38" fill="#4A3525"/>
  <rect x="160" y="930" width="676" height="20" fill="#201915"/>
  <rect x="56" y="934" width="168" height="182" rx="18" fill="#FAF7F1"/>
  <rect x="736" y="934" width="168" height="182" rx="18" fill="#FAF7F1"/>
  <rect x="356" y="826" width="248" height="84" fill="#CDA558"/>
  <defs>
    <linearGradient id="room" x1="480" y1="0" x2="480" y2="1200" gradientUnits="userSpaceOnUse">
      <stop stop-color="#EDE6DB"/>
      <stop offset="1" stop-color="#E0D7CA"/>
    </linearGradient>
    <linearGradient id="view" x1="318" y1="342" x2="318" y2="704" gradientUnits="userSpaceOnUse">
      <stop stop-color="#FCFEFF"/>
      <stop offset="0.5" stop-color="#EDF1F3"/>
      <stop offset="1" stop-color="#C9D5DE"/>
    </linearGradient>
  </defs>
</svg>
