<svg width="960" height="1200" viewBox="0 0 960 1200" fill="none" xmlns="http://www.w3.org/2000/svg">
  <rect width="960" height="1200" fill="#D9D3C8"/>
  <rect x="0" y="0" width="960" height="1200" fill="url(#base)"/>
  <rect x="0" y="882" width="960" height="318" fill="#D7D0C5"/>
  <rect x="86" y="120" width="662" height="838" fill="#33413E"/>
  <rect x="120" y="156" width="594" height="770" fill="#F6F3ED"/>
  <rect x="212" y="242" width="410" height="536" fill="url(#glass)"/>
  <path d="M212 504H622" stroke="#D0D8D6" stroke-width="8"/>
  <path d="M419 242V778" stroke="#D0D8D6" stroke-width="8"/>
  <rect x="118" y="812" width="598" height="54" fill="#446059"/>
  <rect x="40" y="876" width="768" height="34" fill="#24282B"/>
  <ellipse cx="497" cy="1012" rx="48" ry="76" fill="#5A725E"/>
  <path d="M496 938C469 967 461 1010 496 1088C531 1010 523 967 496 938Z" fill="#6B8B6F"/>
  <rect x="690" y="0" width="270" height="1200" fill="#E8E1D4" fill-opacity="0.45"/>
  <defs>
    <linearGradient id="base" x1="480" y1="0" x2="480" y2="1200" gradientUnits="userSpaceOnUse">
      <stop stop-color="#C9C0B1"/>
      <stop offset="1" stop-color="#E8E1D6"/>
    </linearGradient>
    <linearGradient id="glass" x1="417" y1="242" x2="417" y2="778" gradientUnits="userSpaceOnUse">
      <stop stop-color="#F9FBFF"/>
      <stop offset="0.4" stop-color="#E4E4DE"/>
      <stop offset="1" stop-color="#BAC4C8"/>
    </linearGradient>
  </defs>
</svg>
